<?xml version="1.0" encoding="UTF-8"?>
<svg version="1.1" xmlns="http://www.w3.org/2000/svg" width="225" height="225">
<path d="M0 0 C74.25 0 148.5 0 225 0 C225 74.25 225 148.5 225 225 C150.75 225 76.5 225 0 225 C0 150.75 0 76.5 0 0 Z " fill="#FEFEFE" transform="translate(0,0)"/>
<path d="M0 0 C1.45602287 -0.00706483 2.91203839 -0.01581222 4.36804199 -0.02610779 C8.30824268 -0.04854901 12.24804068 -0.0456745 16.18828082 -0.03678632 C19.48345078 -0.03166451 22.77854587 -0.03897867 26.07370812 -0.04625839 C33.85014975 -0.06324076 41.62639508 -0.05970851 49.40283203 -0.04296875 C57.41291343 -0.02604849 65.42244981 -0.04188411 73.43247169 -0.07419163 C80.32189371 -0.10092179 87.21114643 -0.10815433 94.10061508 -0.09967655 C98.21002143 -0.09475733 102.31909995 -0.0969081 106.42846489 -0.11746407 C110.29389028 -0.1358754 114.15853427 -0.12979708 118.02391815 -0.10526466 C119.43799771 -0.10027392 120.85213737 -0.10370138 122.26616859 -0.11641312 C135.54901224 -0.22632616 135.54901224 -0.22632616 141.18447018 4.08457279 C145.66735172 8.50281745 146.00491725 13.02429606 146.06112671 19.00367737 C146.05201767 20.45797401 146.05201767 20.45797401 146.04272461 21.94165039 C146.05061005 23.49395607 146.05061005 23.49395607 146.05865479 25.07762146 C146.07183228 28.49013469 146.06312437 31.90217948 146.05297852 35.31469727 C146.05499989 37.69071543 146.05791186 40.06673298 146.06167603 42.44274902 C146.06609634 47.41916824 146.05967754 52.39542577 146.0456543 57.37182617 C146.02856281 63.7474581 146.03840553 70.12271113 146.05637169 76.49832916 C146.06721728 81.40369517 146.06375957 86.30897149 146.05598831 91.21434021 C146.05398846 93.56505885 146.05643801 95.91578565 146.06342697 98.26649475 C146.07105395 101.55296365 146.05941906 104.83882075 146.04272461 108.12524414 C146.0487973 109.09477524 146.05487 110.06430634 146.06112671 111.06321716 C146.0124438 116.24194813 145.8308327 120.21786936 142.65454102 124.53344727 C137.67406281 128.17063787 134.32131248 129.03031408 128.06689453 128.98754883 C127.34410812 128.98813293 126.62132172 128.98871704 125.87663269 128.98931885 C123.51173144 128.98655468 121.14812549 128.95554488 118.78344727 128.92407227 C117.13436064 128.91660387 115.48526509 128.91091377 113.83616638 128.90692139 C109.51395798 128.89171202 105.19229463 128.85247154 100.87030029 128.80810547 C96.45275239 128.76705076 92.03511568 128.74888868 87.61743164 128.72875977 C78.96285782 128.68597186 70.3088302 128.61566127 61.65454102 128.53344727 C61.65454102 136.78344727 61.65454102 145.03344727 61.65454102 153.53344727 C64.80758789 153.51024414 67.96063477 153.48704102 71.20922852 153.46313477 C74.25398353 153.44754927 77.29873415 153.43539825 80.34350586 153.42358398 C82.46396871 153.41350975 84.58441762 153.39984993 86.70483398 153.38256836 C89.74800045 153.35838237 92.79098368 153.34697857 95.83422852 153.33813477 C96.78635223 153.32781219 97.73847595 153.31748962 98.7194519 153.30685425 C99.60021393 153.30670319 100.48097595 153.30655212 101.38842773 153.30639648 C102.16564178 153.30195526 102.94285583 153.29751404 103.74362183 153.29293823 C105.65454102 153.53344727 105.65454102 153.53344727 107.65454102 155.53344727 C107.11882673 159.06916155 107.11882673 159.06916155 105.65454102 160.53344727 C102.8348816 160.63930817 100.03958581 160.680225 97.21923828 160.67871094 C95.89247574 160.68374886 95.89247574 160.68374886 94.53890991 160.68888855 C91.59957495 160.6984287 88.66029677 160.70034318 85.72094727 160.70141602 C83.68692501 160.70462643 81.65290299 160.70799034 79.61888123 160.71150208 C75.34910547 160.717501 71.07934999 160.71934119 66.80957031 160.71875 C61.32691739 160.71864833 55.84439382 160.73230254 50.36177158 160.74952221 C46.15914813 160.76061754 41.9565562 160.76266997 37.7539196 160.76214027 C35.73203015 160.76332405 33.71013997 160.76776789 31.68826485 160.77547264 C28.86516271 160.78522305 26.04234457 160.7824142 23.21923828 160.77636719 C21.95600487 160.78479645 21.95600487 160.78479645 20.66725159 160.793396 C14.88285633 160.76176258 14.88285633 160.76176258 12.65454102 158.53344727 C13.1902553 154.99773298 13.1902553 154.99773298 14.65454102 153.53344727 C17.68431906 153.44473454 20.69121124 153.41825376 23.72094727 153.43579102 C24.62957016 153.43720596 25.53819305 153.43862091 26.47434998 153.44007874 C29.38861322 153.44569533 32.30280082 153.45825062 35.21704102 153.47094727 C37.18774303 153.47596013 39.15844625 153.48052341 41.12915039 153.48461914 C45.97100016 153.4948211 50.81268549 153.51439318 55.65454102 153.53344727 C55.65454102 145.28344727 55.65454102 137.03344727 55.65454102 128.53344727 C53.54039795 128.55439453 51.42625488 128.5753418 49.24804688 128.59692383 C42.2472716 128.66333084 35.24648209 128.7074372 28.24547482 128.74069595 C24.00250974 128.76153247 19.75986855 128.78977743 15.51708984 128.83520508 C11.41922911 128.87880435 7.32167906 128.90261396 3.2236042 128.91295624 C1.66354039 128.92032246 0.10349276 128.93470706 -1.45643806 128.95636749 C-3.64906101 128.98559041 -5.84041544 128.98939565 -8.03320312 128.98754883 C-9.90184776 129.0008725 -9.90184776 129.0008725 -11.8082428 129.01446533 C-16.40485043 128.38938301 -18.57929008 127.26918661 -22.34545898 124.53344727 C-26.10668857 119.43175761 -25.77750387 114.12033024 -25.74951172 108.03344727 C-25.75637497 106.98882324 -25.76323822 105.94419922 -25.77030945 104.86791992 C-25.7885759 101.42295654 -25.7847404 97.97844857 -25.77905273 94.53344727 C-25.78361421 92.13500826 -25.78891969 89.73657056 -25.79493713 87.33813477 C-25.80386767 82.3146432 -25.80144518 77.29131062 -25.79150391 72.26782227 C-25.78000771 65.83158041 -25.80023662 59.39588665 -25.82942104 52.9597168 C-25.84776852 48.00802121 -25.84749354 43.05645737 -25.84178352 38.10473633 C-25.84163017 35.73168163 -25.84768616 33.35861807 -25.860075 30.9855957 C-25.87495711 27.66786301 -25.86432772 24.35114816 -25.84716797 21.03344727 C-25.85683594 20.05456543 -25.86650391 19.07568359 -25.87646484 18.06713867 C-25.81531681 12.41935204 -25.35157536 8.85192025 -21.34545898 4.53344727 C-14.94576955 -0.71847941 -7.95594833 -0.04060643 0 0 Z " fill="#FEFEFE" transform="translate(52.345458984375,37.466552734375)"/>
<path d="M0 0 C1.45602287 -0.00706483 2.91203839 -0.01581222 4.36804199 -0.02610779 C8.30824268 -0.04854901 12.24804068 -0.0456745 16.18828082 -0.03678632 C19.48345078 -0.03166451 22.77854587 -0.03897867 26.07370812 -0.04625839 C33.85014975 -0.06324076 41.62639508 -0.05970851 49.40283203 -0.04296875 C57.41291343 -0.02604849 65.42244981 -0.04188411 73.43247169 -0.07419163 C80.32189371 -0.10092179 87.21114643 -0.10815433 94.10061508 -0.09967655 C98.21002143 -0.09475733 102.31909995 -0.0969081 106.42846489 -0.11746407 C110.29389028 -0.1358754 114.15853427 -0.12979708 118.02391815 -0.10526466 C119.43799771 -0.10027392 120.85213737 -0.10370138 122.26616859 -0.11641312 C135.54901224 -0.22632616 135.54901224 -0.22632616 141.18447018 4.08457279 C145.66735172 8.50281745 146.00491725 13.02429606 146.06112671 19.00367737 C146.05201767 20.45797401 146.05201767 20.45797401 146.04272461 21.94165039 C146.05061005 23.49395607 146.05061005 23.49395607 146.05865479 25.07762146 C146.07183228 28.49013469 146.06312437 31.90217948 146.05297852 35.31469727 C146.05499989 37.69071543 146.05791186 40.06673298 146.06167603 42.44274902 C146.06609634 47.41916824 146.05967754 52.39542577 146.0456543 57.37182617 C146.02856281 63.7474581 146.03840553 70.12271113 146.05637169 76.49832916 C146.06721728 81.40369517 146.06375957 86.30897149 146.05598831 91.21434021 C146.05398846 93.56505885 146.05643801 95.91578565 146.06342697 98.26649475 C146.07105395 101.55296365 146.05941906 104.83882075 146.04272461 108.12524414 C146.0487973 109.09477524 146.05487 110.06430634 146.06112671 111.06321716 C146.0124438 116.24194813 145.8308327 120.21786936 142.65454102 124.53344727 C137.67406281 128.17063787 134.32131248 129.03031408 128.06689453 128.98754883 C127.34410812 128.98813293 126.62132172 128.98871704 125.87663269 128.98931885 C123.51173144 128.98655468 121.14812549 128.95554488 118.78344727 128.92407227 C117.13436064 128.91660387 115.48526509 128.91091377 113.83616638 128.90692139 C109.51395798 128.89171202 105.19229463 128.85247154 100.87030029 128.80810547 C96.45275239 128.76705076 92.03511568 128.74888868 87.61743164 128.72875977 C78.96285782 128.68597186 70.3088302 128.61566127 61.65454102 128.53344727 C61.65454102 136.78344727 61.65454102 145.03344727 61.65454102 153.53344727 C64.80758789 153.51024414 67.96063477 153.48704102 71.20922852 153.46313477 C74.25398353 153.44754927 77.29873415 153.43539825 80.34350586 153.42358398 C82.46396871 153.41350975 84.58441762 153.39984993 86.70483398 153.38256836 C89.74800045 153.35838237 92.79098368 153.34697857 95.83422852 153.33813477 C96.78635223 153.32781219 97.73847595 153.31748962 98.7194519 153.30685425 C99.60021393 153.30670319 100.48097595 153.30655212 101.38842773 153.30639648 C102.16564178 153.30195526 102.94285583 153.29751404 103.74362183 153.29293823 C105.65454102 153.53344727 105.65454102 153.53344727 107.65454102 155.53344727 C107.11882673 159.06916155 107.11882673 159.06916155 105.65454102 160.53344727 C102.8348816 160.63930817 100.03958581 160.680225 97.21923828 160.67871094 C95.89247574 160.68374886 95.89247574 160.68374886 94.53890991 160.68888855 C91.59957495 160.6984287 88.66029677 160.70034318 85.72094727 160.70141602 C83.68692501 160.70462643 81.65290299 160.70799034 79.61888123 160.71150208 C75.34910547 160.717501 71.07934999 160.71934119 66.80957031 160.71875 C61.32691739 160.71864833 55.84439382 160.73230254 50.36177158 160.74952221 C46.15914813 160.76061754 41.9565562 160.76266997 37.7539196 160.76214027 C35.73203015 160.76332405 33.71013997 160.76776789 31.68826485 160.77547264 C28.86516271 160.78522305 26.04234457 160.7824142 23.21923828 160.77636719 C21.95600487 160.78479645 21.95600487 160.78479645 20.66725159 160.793396 C14.88285633 160.76176258 14.88285633 160.76176258 12.65454102 158.53344727 C13.1902553 154.99773298 13.1902553 154.99773298 14.65454102 153.53344727 C17.68431906 153.44473454 20.69121124 153.41825376 23.72094727 153.43579102 C24.62957016 153.43720596 25.53819305 153.43862091 26.47434998 153.44007874 C29.38861322 153.44569533 32.30280082 153.45825062 35.21704102 153.47094727 C37.18774303 153.47596013 39.15844625 153.48052341 41.12915039 153.48461914 C45.97100016 153.4948211 50.81268549 153.51439318 55.65454102 153.53344727 C55.65454102 145.28344727 55.65454102 137.03344727 55.65454102 128.53344727 C53.54039795 128.55439453 51.42625488 128.5753418 49.24804688 128.59692383 C42.2472716 128.66333084 35.24648209 128.7074372 28.24547482 128.74069595 C24.00250974 128.76153247 19.75986855 128.78977743 15.51708984 128.83520508 C11.41922911 128.87880435 7.32167906 128.90261396 3.2236042 128.91295624 C1.66354039 128.92032246 0.10349276 128.93470706 -1.45643806 128.95636749 C-3.64906101 128.98559041 -5.84041544 128.98939565 -8.03320312 128.98754883 C-9.90184776 129.0008725 -9.90184776 129.0008725 -11.8082428 129.01446533 C-16.40485043 128.38938301 -18.57929008 127.26918661 -22.34545898 124.53344727 C-26.10668857 119.43175761 -25.77750387 114.12033024 -25.74951172 108.03344727 C-25.75637497 106.98882324 -25.76323822 105.94419922 -25.77030945 104.86791992 C-25.7885759 101.42295654 -25.7847404 97.97844857 -25.77905273 94.53344727 C-25.78361421 92.13500826 -25.78891969 89.73657056 -25.79493713 87.33813477 C-25.80386767 82.3146432 -25.80144518 77.29131062 -25.79150391 72.26782227 C-25.78000771 65.83158041 -25.80023662 59.39588665 -25.82942104 52.9597168 C-25.84776852 48.00802121 -25.84749354 43.05645737 -25.84178352 38.10473633 C-25.84163017 35.73168163 -25.84768616 33.35861807 -25.860075 30.9855957 C-25.87495711 27.66786301 -25.86432772 24.35114816 -25.84716797 21.03344727 C-25.85683594 20.05456543 -25.86650391 19.07568359 -25.87646484 18.06713867 C-25.81531681 12.41935204 -25.35157536 8.85192025 -21.34545898 4.53344727 C-14.94576955 -0.71847941 -7.95594833 -0.04060643 0 0 Z M-18.34545898 10.53344727 C-18.9460588 12.61358556 -18.9460588 12.61358556 -18.86012268 14.96739197 C-18.87284714 15.87446396 -18.88557159 16.78153595 -18.89868164 17.71609497 C-18.89215576 18.70890472 -18.88562988 19.70171448 -18.87890625 20.72460938 C-18.88752182 21.7720079 -18.89613739 22.81940643 -18.90501404 23.89854431 C-18.92776355 27.3695428 -18.9209181 30.83973977 -18.91186523 34.31079102 C-18.91709702 36.71830995 -18.92337185 39.12582683 -18.9306488 41.53334045 C-18.94106982 46.58319736 -18.93646722 51.63277278 -18.921875 56.68261719 C-18.90469003 63.16074151 -18.92817115 69.6379787 -18.9633646 76.11600399 C-18.98530391 81.08909507 -18.98390535 86.06197279 -18.97559929 91.03509712 C-18.97477778 93.42376236 -18.98167911 95.81244296 -18.99637032 98.20106316 C-19.01375014 101.53889677 -18.99932638 104.87512234 -18.9765625 108.21289062 C-18.9882547 109.20367615 -18.9999469 110.19446167 -19.01199341 111.215271 C-18.99933945 112.12516281 -18.98668549 113.03505463 -18.97364807 113.97251892 C-18.97306176 114.76136443 -18.97247545 115.55020994 -18.97187138 116.36295986 C-18.00985841 119.69628635 -16.25108936 120.7495403 -13.34545898 122.53344727 C-10.40462121 123.12888633 -10.40462121 123.12888633 -7.19714355 123.04138184 C-5.3423513 123.05830078 -5.3423513 123.05830078 -3.4500885 123.07556152 C-2.08773568 123.06778504 -0.72538519 123.05959242 0.63696289 123.05102539 C2.07785245 123.05644808 3.51873646 123.06357157 4.95960999 123.07226562 C8.86668837 123.09048482 12.77334378 123.08343749 16.68042946 123.07074928 C20.77138016 123.06061424 24.86229493 123.07001636 28.95324707 123.07629395 C35.82298273 123.0835689 42.69254633 123.07398671 49.56225586 123.05493164 C57.50185737 123.03316309 65.441048 123.04021457 73.38063955 123.06223726 C80.20033072 123.08039567 87.01989827 123.08294746 93.83960581 123.07248259 C97.9114445 123.06625004 101.98309013 123.06540534 106.05491638 123.07862854 C109.88329211 123.09019295 113.71113869 123.08215113 117.53945732 123.05905151 C118.94350239 123.05376749 120.34759208 123.05527305 121.75161934 123.06410217 C123.66980512 123.07505141 125.58808835 123.0588786 127.50622559 123.04138184 C128.57915108 123.03987373 129.65207657 123.03836563 130.75751495 123.03681183 C134.42706952 122.39921876 136.09247044 121.21011194 138.65454102 118.53344727 C139.38821983 116.37333387 139.38821983 116.37333387 139.27600098 114.01048279 C139.29281418 112.6582663 139.29281418 112.6582663 139.30996704 111.2787323 C139.2967038 110.29729752 139.28344055 109.31586273 139.26977539 108.3046875 C139.27809891 106.74559158 139.27809891 106.74559158 139.28659058 105.15499878 C139.29840842 101.71687834 139.27409023 98.28006941 139.24829102 94.84204102 C139.24658058 92.45597901 139.24664492 90.06991512 139.24841309 87.68385315 C139.24675867 82.68277008 139.22803604 77.68213462 139.1965332 72.68115234 C139.15683421 66.26253789 139.15248974 59.84450949 139.15999603 53.42579556 C139.16306153 48.49907538 139.15096047 43.57248761 139.13386536 38.64579964 C139.12682183 36.27865491 139.12371245 33.91149518 139.1245575 31.54434013 C139.1227651 28.24022018 139.10143103 24.93681013 139.07446289 21.6328125 C139.07739349 20.64935349 139.0803241 19.66589447 139.08334351 18.65263367 C139.07199371 17.75397583 139.06064392 16.85531799 139.0489502 15.9294281 C139.04522148 15.14833396 139.04149277 14.36723982 139.03765106 13.56247616 C138.55484314 11.00542698 137.65641073 10.1442893 135.65454102 8.53344727 C132.95264648 7.1825 130.84866652 7.40130741 127.82229614 7.39300537 C126.58003265 7.38729523 125.33776917 7.38158508 124.05786133 7.3757019 C122.67358408 7.37445649 121.28930673 7.37333141 119.9050293 7.37231445 C118.45311354 7.36768723 117.001199 7.3626627 115.54928589 7.35726929 C111.59884898 7.34413443 107.64842907 7.33769827 103.69797373 7.33325863 C101.23118135 7.33032978 98.76439364 7.32622534 96.29760361 7.32175446 C88.58329544 7.30807695 80.86899792 7.29841141 73.15467846 7.29455256 C64.24265187 7.29007039 55.33077855 7.27251626 46.41879857 7.24355197 C39.53467306 7.22195311 32.65059073 7.21184925 25.76643169 7.21051145 C21.65267035 7.20946216 17.53905304 7.20352834 13.4253273 7.18569183 C9.5560743 7.16924198 5.68707407 7.16704048 1.81779861 7.17583084 C0.39719466 7.17660287 -1.0234227 7.17223669 -2.44399261 7.16237259 C-4.38236964 7.14970168 -6.32084769 7.15730389 -8.25924683 7.16595459 C-9.34436491 7.16448803 -10.42948299 7.16302147 -11.54748344 7.16151047 C-14.75305426 7.58762918 -16.13340264 8.18429059 -18.34545898 10.53344727 Z " fill="#0A0A0A" transform="translate(52.345458984375,37.466552734375)"/>
<path d="M0 0 C6.06961039 0.58182164 10.2600942 6.70606613 14.3125 10.75 C15.25673828 11.6575 16.20097656 12.565 17.17382812 13.5 C18.06134766 14.38171875 18.94886719 15.2634375 19.86328125 16.171875 C20.68094971 16.9772168 21.49861816 17.78255859 22.34106445 18.61230469 C24 21 24 21 24.01342773 23.51147461 C21.95279734 28.57146151 17.57757285 32.03284227 13.75 35.8125 C12.89019531 36.69615234 12.03039062 37.57980469 11.14453125 38.49023438 C10.30792969 39.32490234 9.47132813 40.15957031 8.609375 41.01953125 C7.84592773 41.78370361 7.08248047 42.54787598 6.29589844 43.33520508 C3.61307737 45.28056417 2.2399769 45.364408 -1 45 C-1.67578125 43.2265625 -1.67578125 43.2265625 -2 41 C-0.91796875 39.2109375 -0.91796875 39.2109375 0.8125 37.375 C1.76769531 36.35019531 1.76769531 36.35019531 2.7421875 35.3046875 C6.79447047 31.16827409 10.86812902 27.05704836 15 23 C12.17901246 19.56906921 9.3393213 16.28539127 6.1171875 13.2265625 C5.61485596 12.74550049 5.11252441 12.26443848 4.5949707 11.76879883 C3.58033256 10.80459355 2.55545189 9.85104368 1.52026367 8.90893555 C0.09765625 7.55078125 0.09765625 7.55078125 -2 5 C-1.8758222 2.67266773 -1.64267751 1.64267751 0 0 Z " fill="#0B0B0B" transform="translate(142,80)"/>
<path d="M0 0 C0.29483328 3.03355809 0.34520864 4.52137878 -1.46875 7.03637695 C-2.1390625 7.68050537 -2.809375 8.32463379 -3.5 8.98828125 C-4.221875 9.69404297 -4.94375 10.39980469 -5.6875 11.12695312 C-6.450625 11.84818359 -7.21375 12.56941406 -8 13.3125 C-8.763125 14.05306641 -9.52625 14.79363281 -10.3125 15.55664062 C-12.19760032 17.38283156 -14.09335569 19.19635759 -16 21 C-14.64735936 24.05747515 -13.16536549 26.02440914 -10.70703125 28.27734375 C-9.7624707 29.17163086 -9.7624707 29.17163086 -8.79882812 30.08398438 C-7.47026993 31.32371076 -6.13423695 32.555473 -4.79101562 33.77929688 C-3.03453876 35.45618056 -1.42096484 37.0298812 0 39 C-0.07421875 41.94140625 -0.07421875 41.94140625 -1 44 C-7.75508654 43.25067872 -11.24493697 38.37546651 -15.8125 33.75 C-16.69615234 32.89019531 -17.57980469 32.03039062 -18.49023438 31.14453125 C-19.32490234 30.30792969 -20.15957031 29.47132812 -21.01953125 28.609375 C-22.16578979 27.4642041 -22.16578979 27.4642041 -23.33520508 26.29589844 C-25 24 -25 24 -25.50415039 21.5 C-24.82081303 18.11144089 -23.3786127 16.79281361 -20.9140625 14.390625 C-19.64175781 13.13572266 -19.64175781 13.13572266 -18.34375 11.85546875 C-17.4465625 10.99566406 -16.549375 10.13585937 -15.625 9.25 C-14.73554687 8.37472656 -13.84609375 7.49945313 -12.9296875 6.59765625 C-4.72739657 -1.41821897 -4.72739657 -1.41821897 0 0 Z " fill="#090909" transform="translate(87,81)"/>
<path d="M0 0 C1.32 0.33 2.64 0.66 4 1 C5.29330558 4.9110379 4.39980958 6.89063089 2.57267761 10.56007385 C2.20193619 11.27372604 1.83119476 11.98737823 1.44921875 12.72265625 C1.07521439 13.46454697 0.70121002 14.20643768 0.31587219 14.97080994 C-0.88246624 17.34054122 -2.09742713 19.70131331 -3.3125 22.0625 C-4.12019524 23.65636705 -4.92684842 25.25076263 -5.73242188 26.84570312 C-11.57010641 38.35515962 -11.57010641 38.35515962 -14 42 C-15.65 41.67 -17.3 41.34 -19 41 C-20 38 -20 38 -19.13891602 35.6784668 C-18.68186279 34.77781494 -18.22480957 33.87716309 -17.75390625 32.94921875 C-17.24956055 31.94632813 -16.74521484 30.9434375 -16.22558594 29.91015625 C-15.67676758 28.84667969 -15.12794922 27.78320312 -14.5625 26.6875 C-14.0149707 25.60984375 -13.46744141 24.5321875 -12.90332031 23.421875 C-8.8361878 15.47367234 -4.58579802 7.66098022 0 0 Z " fill="#080808" transform="translate(121,82)"/>
</svg>
